<svg width="21" height="21" viewBox="0 0 21 21" fill="none" xmlns="http://www.w3.org/2000/svg">
<path d="M9.33259 8.93797L10.1211 11.4075H7.54742L8.32105 8.93797C8.49966 8.3429 8.64834 7.64374 8.79703 7.06355H8.82678C8.97559 7.64378 9.13915 8.32802 9.33259 8.93797ZM21 3.50001V17.5C21 19.425 19.425 21 17.5 21H3.50001C1.575 21 0 19.425 0 17.5V3.50001C0 1.575 1.575 0 3.50001 0H17.5C19.425 0 21 1.575 21 3.50001ZM13.3046 15.6322L10.0466 5.6058H7.71111L4.49786 15.6322H6.38716L7.25005 12.7909H10.4335L11.341 15.6322H13.3046ZM16.3981 8.38753H14.5534V15.6322H16.3981V8.38753ZM16.5021 6.36443C16.4873 5.79911 16.1005 5.36777 15.4757 5.36777C14.8657 5.36777 14.4493 5.79911 14.4493 6.36443C14.4493 6.9149 14.8509 7.34625 15.4608 7.34625C16.1005 7.3462 16.5021 6.91486 16.5021 6.36443Z" fill="white"/>
</svg>
