<svg width="24" height="21" viewBox="0 0 24 21" fill="none" xmlns="http://www.w3.org/2000/svg">
<path d="M23.9296 11.6941C23.7888 10.6285 23.4456 9.618 22.9093 8.69089C22.4416 7.88178 21.8414 7.16217 21.125 6.55055L21.1269 6.54863L13.6031 0.33397C13.5969 0.328111 13.5904 0.322656 13.5861 0.319474C13.336 0.113394 12.9973 0 12.6328 0C12.2679 0 11.916 0.113647 11.6424 0.32008C11.3482 0.54106 11.1801 0.834268 11.1684 1.14642C11.1576 1.43756 11.2868 1.71773 11.533 1.93619C12.0172 2.34703 12.5004 2.76692 12.9842 3.18721C13.4537 3.59533 13.9375 4.01562 14.419 4.4248L5.20351 4.41808C4.14962 4.41808 3.43202 4.9503 3.2844 5.84134C3.21954 6.23163 3.334 6.66076 3.58987 6.98943C3.86134 7.33789 4.25549 7.53008 4.69965 7.53008L5.40217 7.53054C6.37269 7.53054 7.34748 7.52801 8.32096 7.52549L9.2493 7.52316L0.88554 14.1777L0.852334 14.2038C0.385158 14.589 0.0793116 15.1288 0.0133235 15.685C-0.0366959 16.1063 0.0547011 16.4914 0.277745 16.7989C0.543576 17.1654 0.95862 17.367 1.44651 17.367C1.9258 17.367 2.41487 17.1717 2.82423 16.8161L7.34081 12.841C7.32151 13.0351 7.29807 13.3199 7.30075 13.5265C7.30582 13.8538 7.40351 14.5104 7.55817 15.0435C7.87774 16.1391 8.41602 17.1415 9.158 18.0217C9.93003 18.9375 10.8703 19.6637 11.9525 20.1796C13.0967 20.7238 14.3265 21 15.6082 21H15.6201C16.9058 20.9967 18.1396 20.716 19.2875 20.1657C20.3715 19.6437 21.3113 18.9146 22.0804 17.9989C22.8215 17.1141 23.3589 16.1101 23.6779 15.0154C23.8355 14.4739 23.9371 13.9133 23.9793 13.3484C24.0187 12.8015 24.0017 12.2449 23.9296 11.6941ZM15.7019 16.9451C12.8773 16.9451 10.5867 14.7415 10.5867 12.0231C10.5867 9.30489 12.8773 7.10131 15.7019 7.10131C18.5266 7.10131 20.8169 9.30489 20.8169 12.0231C20.817 14.7415 18.5266 16.9451 15.7019 16.9451ZM18.6517 11.5906C18.6933 12.4019 18.392 13.1552 17.8629 13.7129C17.3246 14.2811 16.5565 14.6379 15.6976 14.6379C14.839 14.6379 14.0708 14.2811 13.5324 13.7129C13.0034 13.1552 12.7027 12.402 12.7441 11.5912C12.7847 10.8031 13.1422 10.1074 13.6806 9.61487C14.21 9.13053 14.921 8.835 15.6976 8.835C16.4743 8.835 17.1851 9.13058 17.7146 9.61487C18.2531 10.1074 18.6107 10.8027 18.6517 11.5906Z" fill="white"/>
</svg>
