<svg width="18" height="21" viewBox="0 0 18 21" fill="none" xmlns="http://www.w3.org/2000/svg">
<path d="M2.99998 10.5C3.00159 8.8508 3.63424 7.26967 4.7591 6.10353C5.88397 4.9374 7.40914 4.28153 8.99994 4.27986C10.0525 4.28212 11.0862 4.57025 11.9979 5.11555C12.9097 5.66084 13.6677 6.44428 14.1965 7.38781L12.6777 8.29846L17.7709 5.25038C17.6399 5.00394 17.4506 4.79611 17.2208 4.64643L9.77906 0.193C9.34948 -0.0643332 8.64837 -0.0643332 8.2198 0.193L0.77811 4.64643C0.350555 4.90271 0 5.53292 0 6.04653V14.9534C0 15.2107 0.0871319 15.4964 0.228975 15.7496L3.80443 13.609C3.27604 12.6645 2.99847 11.5918 2.99998 10.5Z" fill="white"/>
<path d="M11.5976 8.94445C11.3335 8.47252 10.9546 8.08064 10.4988 7.80787C10.043 7.53511 9.52615 7.39102 8.99985 7.38995C8.4737 7.39102 7.95706 7.53537 7.50166 7.80856C7.04626 8.08175 6.66808 8.47418 6.40501 8.94655C6.14194 9.41893 6.0032 9.95467 6.00269 10.5001C6.00218 11.0456 6.13991 11.5816 6.4021 12.0545L8.99985 10.5L11.5976 8.94445Z" fill="white"/>
<path d="M17.771 5.25043L12.6585 8.31006L11.5988 8.94552L11.5978 8.94447L9 10.5L6.40326 12.0545C6.66663 12.527 7.04515 12.9194 7.50091 13.1924C7.95666 13.4654 8.47363 13.6095 9 13.6101C9.52659 13.6092 10.0437 13.4651 10.4998 13.1921C10.9558 12.9191 11.3348 12.5269 11.5988 12.0545L14.1955 13.6122C13.6669 14.5558 12.9089 15.3394 11.9971 15.8847C11.0854 16.43 10.0516 16.7181 8.99899 16.7201C7.94586 16.7195 6.91143 16.4317 5.99949 15.8856C5.08756 15.3395 4.33022 14.5544 3.80348 13.609L0.228027 15.7496C0.36987 16.0038 0.564398 16.2254 0.778175 16.3535L8.21987 20.807C8.64843 21.0643 9.34954 21.0643 9.77913 20.807L17.2208 16.3535C17.4346 16.2254 17.6291 16.0038 17.771 15.7496C17.9128 15.4965 17.9999 15.2108 17.9999 14.9534V6.04658C17.9999 5.78925 17.9128 5.50356 17.771 5.25043ZM15 10.8456H14.3333V11.5367H13.6677V10.8456H13.001V10.1545H13.6677V9.46333H14.3333V10.1545H15V10.8456ZM17.5005 10.8456H16.8338V11.5367H16.1671V10.8456H15.5015V10.1545H16.1671V9.46333H16.8338V10.1545H17.5005V10.8456Z" fill="white"/>
</svg>
