<svg width="21" height="21" viewBox="0 0 21 21" fill="none" xmlns="http://www.w3.org/2000/svg">
<path d="M21 0L19.0309 18.9582L10.4999 21L1.96864 18.9582L0 0H21ZM17.0322 3.85485H10.4922H3.83627L4.15458 6.14423H10.4922H10.8482L10.4922 6.27594L4.38621 8.53647L4.58871 10.7743L10.4922 10.7913L13.6563 10.8002L13.4537 13.784L10.4921 14.5252V14.5229L10.4679 14.5289L7.60772 13.8871L7.43416 12.0349H7.42468H4.77174H4.7624L5.10966 15.6105L10.4922 17.0254V17.0228L10.5019 17.0254L15.8557 15.6363L16.5501 8.53647H10.4922H10.4773L10.4922 8.53072L16.772 6.14423L17.0322 3.85485Z" fill="white"/>
</svg>
