<svg width="128" height="97" viewBox="0 0 128 97" fill="none" xmlns="http://www.w3.org/2000/svg">
<path d="M108.428 8.12373C100.143 4.32862 91.2831 1.5705 82.0208 0C80.8833 2.01333 79.5543 4.72129 78.638 6.87547C68.792 5.4259 59.0365 5.4259 49.3715 6.87547C48.4554 4.72129 47.0963 2.01333 45.9486 0C36.6763 1.5705 27.8067 4.33876 19.521 8.14382C2.80876 32.867 -1.72166 56.976 0.543555 80.7427C11.628 88.8462 22.3702 93.7688 32.9311 96.99C35.5386 93.4768 37.8642 89.7422 39.8676 85.8062C36.052 84.3869 32.3975 82.6353 28.9444 80.6019C29.8605 79.9375 30.7566 79.2428 31.6223 78.5281C52.6837 88.1718 75.5675 88.1718 96.3773 78.5281C97.2532 79.2428 98.1491 79.9375 99.0552 80.6019C95.5919 82.6453 91.9274 84.3968 88.1118 85.8163C90.1152 89.7422 92.4308 93.4869 95.0483 97C105.619 93.7788 116.372 88.8563 127.456 80.7427C130.114 53.1911 122.916 29.3034 108.428 8.12373ZM42.7369 66.1264C36.4145 66.1264 31.2296 60.3482 31.2296 53.3118C31.2296 46.2754 36.3038 40.4872 42.7369 40.4872C49.1703 40.4872 54.355 46.2653 54.2443 53.3118C54.2543 60.3482 49.1703 66.1264 42.7369 66.1264ZM85.2626 66.1264C78.9402 66.1264 73.7553 60.3482 73.7553 53.3118C73.7553 46.2754 78.8293 40.4872 85.2626 40.4872C91.6958 40.4872 96.8807 46.2653 96.7699 53.3118C96.7699 60.3482 91.6958 66.1264 85.2626 66.1264Z" fill="white"/>
</svg>
