<svg width="17" height="21" viewBox="0 0 17 21" fill="none" xmlns="http://www.w3.org/2000/svg">
<path d="M5.7039 8.54254C5.49091 8.11284 5.39542 7.61164 5.55815 7.15634C5.72083 6.69085 6.08525 6.31745 6.44966 5.96957C7.46417 5.04365 8.71447 4.36335 9.70673 3.42221C10.2561 2.90551 10.7101 2.28657 10.867 1.57549C10.996 1.05378 10.9344 0.516697 10.8167 0C11.3437 0.547355 11.5175 1.32998 11.3661 2.03593C11.2036 2.82875 10.7213 3.52951 10.1551 4.13309C9.7011 4.61913 9.17963 5.04878 8.63592 5.44786C8.00244 5.91336 7.38022 6.4146 6.98225 7.06938C6.64572 7.60128 6.56721 8.25606 6.79714 8.83412C7.17281 9.82642 8.04725 10.5631 8.52386 11.4991C7.99676 11.0745 7.48111 10.6346 6.99883 10.1692C6.49448 9.6781 6.01787 9.15643 5.7039 8.54254ZM8.563 7.76497C8.46774 8.57834 8.93291 9.34559 9.48806 9.94925C9.75704 10.2203 9.98692 10.5528 9.99804 10.9314C10.0093 11.4376 9.69556 11.9084 9.29165 12.2408C9.38708 12.2306 9.45433 12.1538 9.53283 12.1129C10.1383 11.76 10.7212 11.3149 11.0183 10.7064C11.2146 10.292 11.1697 9.80085 10.9119 9.41714C10.6091 8.96702 10.2112 8.56802 9.97575 8.07701C9.84662 7.8008 9.80181 7.47857 9.90837 7.187C10.0486 6.79318 10.3513 6.47086 10.6709 6.18952C11.551 5.42744 12.6161 4.88502 13.6365 4.29176C12.347 4.62932 11.0745 5.09485 9.98692 5.8264C9.29732 6.29699 8.65835 6.95168 8.563 7.76497ZM14.6906 11.6117C15.3017 11.6424 15.9013 12.0516 16.0135 12.6143C16.1201 13.1003 15.8623 13.581 15.5314 13.9493C14.9876 14.5427 14.2531 14.9673 13.5133 15.3305C13.4403 15.3712 13.3787 15.4224 13.3226 15.4788C14.2981 15.2536 15.2734 14.9162 16.064 14.3381C16.5011 14.0056 16.8879 13.5656 16.9721 13.0387C17.0506 12.5835 16.8433 12.1129 16.4732 11.8111C16.0246 11.4376 15.3913 11.2996 14.7969 11.3712C14.455 11.4121 14.0794 11.4786 13.844 11.7395C14.1244 11.6885 14.3989 11.5861 14.6906 11.6117ZM2.51971 13.0745C3.25398 13.2536 4.01087 13.3048 4.76208 13.3508C5.43479 13.3917 6.10763 13.402 6.78601 13.3969C8.53503 13.3714 10.2953 13.2639 12.0107 12.9161C12.1732 12.8803 12.3527 12.8547 12.4986 12.7627C12.7845 12.5938 13.0982 12.4607 13.4067 12.3278C12.0107 12.5324 10.6092 12.7064 9.19652 12.7882C7.76697 12.8701 6.32612 12.9212 4.89107 12.8343C4.48185 12.7985 4.06131 12.778 3.68014 12.6347C3.59034 12.5989 3.46697 12.5274 3.51179 12.4198C3.59597 12.2817 3.76414 12.2153 3.90989 12.1437C4.52666 11.8777 5.19932 11.7294 5.85528 11.5555C4.72835 11.54 3.60709 11.8009 2.57578 12.205C2.34585 12.3074 2.088 12.3892 1.90307 12.5631C1.83002 12.6346 1.83002 12.7576 1.9142 12.8188C2.08242 12.957 2.30653 13.0183 2.51971 13.0745ZM11.6016 14.4813C10.6205 14.6399 9.63367 14.7884 8.64137 14.8343C7.5538 14.9008 6.46624 14.8445 5.38993 14.7422C5.18257 14.7166 4.97507 14.686 4.79014 14.5991C4.69484 14.5479 4.59958 14.4661 4.60521 14.3585C4.61633 14.1898 4.77321 14.0722 4.88544 13.9494C4.53796 14.0619 4.19031 14.1794 3.89881 14.3894C3.77531 14.4764 3.65209 14.6144 3.68564 14.7678C3.73631 14.9468 3.92687 15.0543 4.09505 15.136C4.50977 15.3305 4.97512 15.4174 5.42934 15.4941C6.57834 15.663 7.75008 15.6682 8.90489 15.5964C10.1273 15.5095 11.3437 15.3254 12.5266 15.0082C12.1902 14.8702 11.8706 14.7114 11.6016 14.4813ZM5.44042 16.2514C5.12649 16.3332 4.80689 16.4304 4.54909 16.6195C4.41992 16.7116 4.31916 16.8703 4.38091 17.0186C4.45942 17.2078 4.65565 17.3206 4.84045 17.4175C5.32273 17.658 5.86645 17.7704 6.39899 17.8575C7.60447 18.0313 8.84328 18.0058 10.043 17.8115C10.7549 17.6887 11.467 17.5147 12.1284 17.2438C11.6967 17.08 11.2764 16.8958 10.8728 16.681C10.172 16.7935 9.4655 16.9113 8.74793 16.9522C7.80066 17.0187 6.84191 16.947 5.89446 16.8397C5.67016 16.7936 5.38993 16.7732 5.23855 16.5941C5.16023 16.4456 5.33953 16.3382 5.44042 16.2514ZM13.1096 19.5403C13.8944 19.3922 14.6849 19.2231 15.4025 18.8907C15.6266 18.7729 15.9013 18.645 15.9744 18.3997C16.0135 18.1644 15.7444 18.0415 15.5538 17.9443C15.6715 18.0673 15.75 18.2462 15.6322 18.3894C15.436 18.6299 15.0998 18.7219 14.8026 18.814C13.8721 19.0544 12.9077 19.1516 11.9491 19.2489C9.40956 19.4585 6.85308 19.5097 4.31367 19.3154C3.46152 19.2334 2.5924 19.1465 1.77957 18.8703C1.65076 18.8191 1.45452 18.7679 1.45452 18.6093C1.50483 18.4714 1.65076 18.3945 1.77957 18.328C2.36261 18.057 3.01293 17.9085 3.66321 17.8728C3.47278 17.7704 3.24849 17.7602 3.02987 17.7654C2.48597 17.7807 1.95343 17.9085 1.43777 18.0673C0.994852 18.2154 0.540765 18.3792 0.187476 18.676C0.0473588 18.7884 -0.0814541 19.0032 0.0641131 19.1568C0.288409 19.3767 0.636068 19.4329 0.944183 19.4994C2.6709 19.7706 4.41992 19.9239 6.16925 19.9802C8.49017 20.0418 10.8278 19.9496 13.1096 19.5403ZM15.4081 19.8166C14.3541 20.1235 13.261 20.2923 12.1733 20.4304C10.2953 20.6453 8.40036 20.7117 6.51109 20.6607C5.36191 20.6198 4.21274 20.5482 3.08018 20.3741C3.34366 20.5378 3.66888 20.5889 3.97168 20.6657C5.24436 20.9113 6.55041 20.9573 7.84552 20.9931C9.74573 21.0238 11.6463 20.9573 13.5188 20.6862C14.4047 20.5432 15.296 20.3691 16.0919 19.9906C16.5069 19.7911 16.9274 19.484 17 19.0391C16.5797 19.4482 15.9744 19.6376 15.4081 19.8166Z" fill="white"/>
</svg>
