<svg width="21" height="21" viewBox="0 0 21 21" fill="none" xmlns="http://www.w3.org/2000/svg">
<path d="M19.6593 0H1.3407C0.600908 0 0 0.599974 0 1.34064V19.6594C0 20.3982 0.600908 21 1.3407 21H19.6593C20.3991 21 21 20.3991 21 19.6594V1.33973C20.9991 0.599974 20.3991 0 19.6593 0ZM9.53555 11.8361C9.53555 12.4197 9.48018 12.9171 9.36944 13.3274C9.2587 13.7377 9.09077 14.0672 8.86747 14.3249C8.64327 14.5791 8.36278 14.767 8.02874 14.8841C7.6938 15.003 7.30439 15.0611 6.86051 15.0611C6.4702 15.0611 6.118 14.9994 5.80121 14.8768C5.48442 14.7543 5.21664 14.5791 4.99516 14.3504C4.77277 14.1207 4.60212 13.8439 4.4823 13.5189C4.36157 13.1931 4.30166 12.8291 4.30166 12.4306V12.1692H5.55976C5.55976 13.3401 5.99365 13.9265 6.86142 13.9265C7.08381 13.9265 7.28079 13.9011 7.45507 13.8475C7.62844 13.793 7.77549 13.6941 7.89622 13.5462C8.01694 13.3991 8.10772 13.1958 8.17035 12.9326C8.23298 12.6693 8.26475 12.3262 8.26475 11.9024V5.35075H9.53737V11.8361H9.53555ZM16.5567 13.7377C16.4269 14.0027 16.2418 14.2342 16.0048 14.4321C15.7661 14.6299 15.4747 14.7833 15.1325 14.8959C14.7912 15.0057 14.4064 15.0611 13.9825 15.0611C12.1035 15.0611 11.1113 14.3195 11.0106 12.8345H12.2469C12.2523 13.6732 12.8269 14.0935 13.9688 14.0935C14.2221 14.0935 14.449 14.0663 14.6442 14.0091C14.8393 13.9537 15.0027 13.8766 15.1316 13.7785C15.2623 13.6805 15.3604 13.5634 15.4284 13.43C15.4947 13.2975 15.5301 13.1531 15.5301 12.9952C15.5301 12.8291 15.5038 12.6975 15.4539 12.5976C15.403 12.4969 15.3032 12.407 15.1561 12.329C15.01 12.2518 14.8057 12.1756 14.5461 12.102C14.2856 12.0258 13.9452 11.9323 13.5259 11.8225C13.1174 11.7208 12.7634 11.6192 12.4675 11.5175C12.1697 11.4177 11.9265 11.2951 11.7368 11.1508C11.5461 11.0056 11.4045 10.8277 11.3129 10.6162C11.2212 10.4038 11.1758 10.136 11.1758 9.81289C11.1758 9.52879 11.2357 9.26465 11.3564 9.0214C11.4772 8.77814 11.6487 8.56756 11.8738 8.38874C12.0971 8.20993 12.3685 8.07106 12.6862 7.9694C13.0067 7.86774 13.3607 7.81782 13.7501 7.81782C15.5673 7.81782 16.4914 8.46317 16.5195 9.75571H15.3041C15.2605 9.11035 14.774 8.78631 13.8436 8.78631C13.6366 8.78631 13.446 8.80718 13.269 8.84803C13.092 8.88887 12.9404 8.94787 12.8097 9.02503C12.679 9.10218 12.5791 9.19748 12.5056 9.31094C12.4339 9.4244 12.3976 9.55602 12.3976 9.70488C12.3976 9.84012 12.4148 9.95086 12.4484 10.0371C12.482 10.1242 12.5628 10.2059 12.6908 10.2803C12.8188 10.3548 13.0085 10.4283 13.2581 10.5009C13.5086 10.5735 13.8508 10.6625 14.2856 10.7687C14.705 10.8694 15.069 10.9747 15.3785 11.0827C15.6862 11.1916 15.9422 11.3233 16.1483 11.4776C16.3534 11.631 16.5041 11.8189 16.6039 12.0412C16.702 12.2627 16.7519 12.5405 16.7519 12.8727C16.7519 13.184 16.6856 13.4726 16.5567 13.7377Z" fill="white"/>
</svg>
