<svg width="21" height="21" viewBox="0 0 21 21" fill="none" xmlns="http://www.w3.org/2000/svg">
<path fill-rule="evenodd" clip-rule="evenodd" d="M21 2.68323C21 4.164 19.7998 5.36449 18.3171 5.36449C16.8363 5.36449 15.6359 4.16404 15.6359 2.68323C15.6359 1.20037 16.8363 0 18.3171 0C19.7998 0 21 1.20037 21 2.68323ZM14.1039 14.3934L13.3463 14.5082C12.7689 14.5903 12.5046 14.8142 12.5046 15.2096C12.5046 15.6794 12.7779 15.9343 13.2643 15.9343C13.807 15.9343 14.3278 15.6704 14.5337 15.284C14.5902 15.1767 14.5902 15.1512 14.5902 14.9363V14.7888V14.7305L14.5993 14.2366V14.2276C14.5902 14.2276 14.5574 14.2533 14.5337 14.2697C14.4846 14.3188 14.3352 14.3608 14.1039 14.3934ZM18.3171 11.8418C18.3171 16.8998 14.2167 21 9.15862 21C4.10017 21 0 16.8998 0 11.8418C0 6.78329 4.10017 2.68323 9.15862 2.68323C14.2167 2.68323 18.3171 6.78333 18.3171 11.8418ZM6.71939 15.7031H3.71774V10.5028H2.90169V16.4208H6.71939V15.7031ZM10.9071 12.1094H10.1732V14.5667V14.6412C10.1732 14.8707 10.0491 15.2423 9.89262 15.4737C9.7104 15.7521 9.38079 15.918 9.01829 15.918C8.44081 15.918 8.1532 15.6141 8.1532 14.9947V12.1094H7.41887V15.2496V15.3168C7.41887 16.0419 8.00551 16.5446 8.83796 16.5446C9.47167 16.5446 9.89977 16.3061 10.206 15.7942V16.4209H10.907V12.1094H10.9071ZM15.8199 15.8854C15.7034 15.909 15.6466 15.918 15.5794 15.918C15.4156 15.918 15.3407 15.8434 15.3407 15.6633V13.1986C15.3407 12.4391 14.7306 11.9853 13.7086 11.9853C12.5884 11.9853 12.002 12.4646 11.9617 13.4209H12.6377C12.7196 12.8342 13.0163 12.5883 13.6266 12.5883C14.2933 12.5883 14.6248 12.8342 14.6248 13.3135C14.6248 13.7579 14.5665 13.7905 13.3788 13.9144C12.9744 13.9474 12.8434 13.9728 12.6378 14.0384C12.0767 14.2204 11.7469 14.6814 11.7469 15.2752C11.7469 16.0655 12.2917 16.5447 13.1896 16.5447C13.7416 16.5447 14.1202 16.3625 14.6577 15.8523C14.6812 16.2898 14.9126 16.5026 15.35 16.5026C15.5137 16.5026 15.5976 16.4862 15.82 16.421L15.8199 15.8854ZM15.6358 8.04752C15.6358 6.56655 14.4338 5.36445 12.9528 5.36445C11.4719 5.36445 10.2698 6.56655 10.2698 8.04752C10.2698 9.52837 11.4719 10.7305 12.9528 10.7305C14.4338 10.7305 15.6358 9.52837 15.6358 8.04752Z" fill="white"/>
</svg>
