<svg width="21" height="21" viewBox="0 0 21 21" fill="none" xmlns="http://www.w3.org/2000/svg">
<path d="M17.5 0H3.50001C1.575 0 0 1.575 0 3.50001V17.5C0 19.425 1.575 21 3.50001 21H17.5C19.425 21 21 19.425 21 17.5V3.50001C21 1.575 19.425 0 17.5 0ZM10.0614 10.6859C9.33257 11.4148 8.18702 11.7571 6.89284 11.7571C6.55067 11.7571 6.2383 11.7421 6.00023 11.6974V15.476H4.18548V5.5834C4.84002 5.46443 5.7475 5.37509 6.98205 5.37509C8.32104 5.37509 9.30286 5.65774 9.94256 6.19334C10.5376 6.68432 10.9243 7.4727 10.9243 8.40989C10.9243 9.362 10.6268 10.1503 10.0614 10.6859ZM13.8691 15.6249C12.9913 15.6249 12.2029 15.4166 11.6674 15.119L12.0244 13.795C12.4409 14.0479 13.2294 14.3158 13.8839 14.3158C14.6871 14.3158 15.0443 13.9885 15.0443 13.5124C15.0443 13.0216 14.7468 12.7686 13.8542 12.4562C12.4409 11.9652 11.846 11.1917 11.8608 10.3438C11.8608 9.06442 12.917 8.06776 14.598 8.06776C15.4014 8.06776 16.1005 8.27608 16.5169 8.49911L16.1599 9.79334C15.8475 9.6149 15.2673 9.37683 14.6277 9.37683C13.9731 9.37683 13.6161 9.68924 13.6161 10.1355C13.6161 10.5967 13.9583 10.8199 14.8806 11.1472C16.1897 11.6231 16.7996 12.2925 16.8145 13.3637C16.8145 14.6728 15.7881 15.6249 13.8691 15.6249ZM9.0945 8.48423C9.0945 9.65949 8.26137 10.3289 6.89284 10.3289C6.52096 10.3289 6.22343 10.314 6.00023 10.2546V6.86275C6.19371 6.81816 6.55071 6.77353 7.05656 6.77353C8.32104 6.77353 9.0945 7.3686 9.0945 8.48423Z" fill="white"/>
</svg>
