<svg width="21" height="21" viewBox="0 0 21 21" fill="none" xmlns="http://www.w3.org/2000/svg">
<path fill-rule="evenodd" clip-rule="evenodd" d="M13.3812 19.3809C12.8751 19.3809 12.4656 18.9694 12.4656 18.4606C12.4656 17.9519 12.8751 17.5414 13.3812 17.5414C13.8873 17.5414 14.2968 17.9519 14.2968 18.4606C14.2968 18.9694 13.8873 19.3809 13.3812 19.3809ZM10.5756 21C15.9075 21 15.5747 18.676 15.5747 18.676L15.5683 16.2683H10.4811V15.5454H17.5886C17.5886 15.5454 21 15.9349 21 10.5277C21 5.12042 18.0233 5.31101 18.0233 5.31101H16.2456V7.82117C16.2456 7.82117 16.3412 10.8133 13.3161 10.8133H8.26981C8.26981 10.8133 5.43479 10.7683 5.43479 13.5685V18.1976C5.43479 18.1976 5.00429 21 10.5756 21ZM7.61984 1.61909C8.12594 1.61909 8.53439 2.03063 8.53439 2.53938C8.53439 3.04813 8.12594 3.45864 7.61984 3.45864C7.11374 3.45864 6.70426 3.04813 6.70426 2.53938C6.70426 2.03063 7.11374 1.61909 7.61984 1.61909ZM10.4244 0C5.09356 0 5.4264 2.32405 5.4264 2.32405L5.43271 4.73166H10.52V5.45457H3.41144C3.41144 5.45457 0 5.06506 0 10.4723C0 15.8796 2.9778 15.689 2.9778 15.689H4.75442V13.1788C4.75442 13.1788 4.65885 10.1867 7.68495 10.1867H12.7302C12.7302 10.1867 15.5652 10.2317 15.5652 7.43152V2.80239C15.5652 2.80239 15.9957 0 10.4244 0Z" fill="white"/>
</svg>
