<svg width="21" height="21" viewBox="0 0 21 21" fill="none" xmlns="http://www.w3.org/2000/svg">
<path d="M4.04066 0.000825005C4.11231 0.000937856 4.18396 0.000830996 4.25561 0.000753655C4.38086 0.000648084 4.5061 0.000679595 4.63134 0.000803802C4.81758 0.000987989 5.00382 0.000956436 5.19007 0.000883161C5.5035 0.000766252 5.81694 0.000824893 6.13038 0.000987626C6.44071 0.00114871 6.75104 0.0012401 7.06137 0.0012366C7.0807 0.00123645 7.10003 0.00123631 7.11995 0.00123616C7.19843 0.0012354 7.2769 0.00123417 7.35538 0.00123232C8.09097 0.00121541 8.82656 0.00140089 9.56215 0.00168852C10.2154 0.00194303 10.8687 0.0020594 11.522 0.00204687C11.564 0.00204611 11.6059 0.00204536 11.6479 0.00204461C11.679 0.00204404 11.679 0.00204404 11.7108 0.00204345C11.8152 0.00204157 11.9197 0.00203988 12.0241 0.00203841C12.0447 0.0020381 12.0653 0.00203778 12.0865 0.00203746C12.6328 0.00203064 13.1791 0.00211541 13.7253 0.00223125C13.7545 0.00223742 13.7545 0.00223742 13.7842 0.00224371C13.8624 0.0022603 13.9405 0.00227689 14.0186 0.00229396C14.2903 0.00235293 14.562 0.00238115 14.8337 0.00238941C15.1837 0.00240057 15.5338 0.00247527 15.8838 0.00265891C16.0689 0.00275432 16.2539 0.00279945 16.439 0.00277102C16.5626 0.00275729 16.6863 0.00281171 16.81 0.00292123C16.8804 0.00298178 16.9508 0.0030136 17.0212 0.00296305C17.0972 0.0029093 17.1732 0.00300059 17.2492 0.00310509C17.2709 0.00306671 17.2925 0.00302833 17.3149 0.00298879C17.5251 0.00351657 17.7327 0.0137405 17.9386 0.0591951C17.9542 0.0625426 17.9699 0.0658901 17.986 0.0693391C18.0978 0.0936569 18.2085 0.120127 18.3177 0.1549C18.3383 0.161375 18.3589 0.16785 18.3802 0.174522C18.7967 0.310784 19.1951 0.510938 19.5381 0.789817C19.5555 0.803514 19.5729 0.817211 19.5908 0.831323C19.6719 0.896001 19.7465 0.963411 19.8178 1.03922C19.8477 1.06987 19.8789 1.09726 19.9115 1.12478C19.9834 1.1868 20.0421 1.2581 20.1028 1.33136C20.1133 1.3433 20.1238 1.35524 20.1346 1.36755C20.2178 1.46191 20.2888 1.56188 20.3578 1.6675C20.3672 1.68151 20.3767 1.69552 20.3864 1.70995C20.4657 1.83146 20.5318 1.95955 20.598 2.08883C20.612 2.11599 20.612 2.11599 20.6262 2.1437C20.886 2.65706 20.9986 3.24365 20.9976 3.81856C20.9977 3.85408 20.9977 3.85408 20.9977 3.89031C20.9978 3.9556 20.9978 4.02088 20.9978 4.08616C20.9977 4.15735 20.9978 4.22854 20.9979 4.29974C20.998 4.42437 20.998 4.549 20.998 4.67363C20.9979 4.85896 20.998 5.0443 20.9981 5.22963C20.9983 5.57992 20.9983 5.93021 20.9983 6.2805C20.9983 6.55102 20.9984 6.82153 20.9984 7.09205C20.9985 7.16995 20.9985 7.24786 20.9985 7.32577C20.9985 7.34514 20.9985 7.36451 20.9985 7.38446C20.9986 7.92913 20.9987 8.4738 20.9987 9.01847C20.9987 9.039 20.9987 9.05953 20.9987 9.08068C20.9987 9.18472 20.9987 9.28876 20.9987 9.3928C20.9987 9.42379 20.9987 9.42379 20.9987 9.45541C20.9987 9.49719 20.9987 9.53898 20.9987 9.58076C20.9987 10.2309 20.9988 10.8811 20.999 11.5313C20.9993 12.262 20.9995 12.9927 20.9995 13.7233C20.9995 13.8013 20.9995 13.8792 20.9995 13.9571C20.9995 13.9763 20.9995 13.9955 20.9995 14.0153C20.9995 14.3239 20.9996 14.6325 20.9997 14.9411C20.9999 15.2513 20.9999 15.5614 20.9998 15.8716C20.9997 16.0558 20.9998 16.24 20.9999 16.4242C21 16.5473 21 16.6705 20.9999 16.7937C20.9998 16.8637 20.9998 16.9338 21 17.0039C21.0006 17.3567 20.9868 17.6862 20.9065 18.0306C20.8998 18.0605 20.8998 18.0605 20.8931 18.091C20.7545 18.6974 20.4633 19.2801 20.0415 19.73C20.0024 19.7718 19.965 19.8141 19.9286 19.8584C19.8642 19.9362 19.8642 19.9362 19.8295 19.9681C19.8175 19.9681 19.8055 19.9681 19.7931 19.9681C19.7931 19.9804 19.7931 19.9927 19.7931 20.0054C19.757 20.0378 19.7208 20.0678 19.6827 20.0976C19.6711 20.1068 19.6594 20.1159 19.6474 20.1253C19.623 20.1445 19.5985 20.1636 19.5739 20.1827C19.5414 20.2082 19.5095 20.2344 19.4776 20.2609C19.1726 20.5086 18.797 20.6893 18.427 20.8084C18.3954 20.8191 18.3954 20.8191 18.3632 20.83C18.1399 20.9033 17.9121 20.9429 17.6802 20.9765C17.6599 20.9796 17.6397 20.9828 17.6188 20.9861C17.5123 20.9996 17.4057 20.9977 17.2985 20.9975C17.2748 20.9976 17.251 20.9976 17.2266 20.9976C17.1607 20.9977 17.0948 20.9977 17.0289 20.9976C16.9572 20.9976 16.8855 20.9977 16.8138 20.9978C16.6881 20.9979 16.5624 20.9979 16.4368 20.9979C16.2499 20.9978 16.063 20.9979 15.8761 20.998C15.5229 20.9982 15.1696 20.9982 14.8164 20.9983C14.5435 20.9983 14.2707 20.9983 13.9978 20.9984C13.9193 20.9984 13.8408 20.9984 13.7622 20.9984C13.7329 20.9984 13.7329 20.9984 13.7031 20.9984C13.1538 20.9985 12.6045 20.9986 12.0553 20.9986C12.0345 20.9986 12.0138 20.9986 11.9925 20.9986C11.8875 20.9986 11.7825 20.9986 11.6775 20.9986C11.6567 20.9986 11.6358 20.9986 11.6144 20.9986C11.5722 20.9986 11.53 20.9986 11.4879 20.9986C10.8322 20.9986 10.1765 20.9987 9.52076 20.999C8.78405 20.9993 8.04733 20.9994 7.31061 20.9994C7.23201 20.9994 7.15341 20.9994 7.07481 20.9994C7.04578 20.9994 7.04578 20.9994 7.01616 20.9994C6.70501 20.9994 6.39386 20.9995 6.0827 20.9997C5.76979 20.9998 5.45688 20.9999 5.14397 20.9997C4.95821 20.9997 4.77245 20.9997 4.58668 20.9999C4.4624 21 4.33812 21 4.21384 20.9998C4.14315 20.9998 4.07247 20.9998 4.00179 20.9999C3.64247 21.0006 3.28493 20.9992 2.93289 20.9158C2.90685 20.9098 2.90685 20.9098 2.88028 20.9036C2.60733 20.8384 2.35652 20.7408 2.10624 20.6122C2.0713 20.5943 2.03621 20.5767 2.00093 20.5596C1.22515 20.1772 0.560762 19.4148 0.266671 18.5862C0.252116 18.5434 0.237982 18.5006 0.2247 18.4574C0.213356 18.4222 0.20014 18.3877 0.186696 18.3533C0.148665 18.2498 0.125629 18.1429 0.101598 18.0353C0.0969374 18.0153 0.0922766 17.9953 0.0874745 17.9748C0.011262 17.6365 0.00623856 17.3066 0.00664286 16.9611C0.00668632 16.8896 0.00651856 16.818 0.0063791 16.7464C0.00616419 16.6212 0.0060839 16.4959 0.00609366 16.3707C0.00610816 16.1845 0.00591543 15.9982 0.00568536 15.812C0.0052356 15.4406 0.00507471 15.0691 0.00498329 14.6977C0.00497854 14.6785 0.00497374 14.6592 0.00496884 14.6394C0.0049641 14.6202 0.00495955 14.6009 0.00495467 14.5811C0.00489844 14.3673 0.00477979 14.1535 0.00465922 13.9398C0.00430142 13.2936 0.00400251 12.6475 0.00395103 12.0014C0.00394932 11.9807 0.00394779 11.9601 0.00394603 11.9388C0.00393913 11.8551 0.0039323 11.7714 0.00392574 11.6877C0.00392079 11.6248 0.00391578 11.5618 0.00391073 11.4988C0.00390913 11.478 0.00390766 11.4572 0.003906 11.4357C0.00385311 10.7822 0.00345068 10.1286 0.00279008 9.47503C0.00204726 8.74009 0.00161654 8.00516 0.00161107 7.27022C0.0016093 7.19176 0.0016064 7.1133 0.00160245 7.03483C0.00160165 7.01551 0.00160078 6.9962 0.00159995 6.97629C0.0015796 6.66623 0.00126323 6.35616 0.000840623 6.04609C0.000423288 5.7341 0.000348386 5.4221 0.000613825 5.1101C0.000761621 4.92508 0.000661134 4.74006 0.000191637 4.55504C-9.74179e-05 4.43106 -4.80277e-05 4.30708 0.000262789 4.18309C0.000430065 4.11271 0.000464028 4.04233 8.12956e-05 3.97195C-0.00303165 3.3595 0.0886833 2.74352 0.357746 2.19037C0.364679 2.17605 0.371611 2.16173 0.378754 2.14698C0.520096 1.8578 0.687567 1.60092 0.88598 1.35004C0.897791 1.33499 0.909601 1.31995 0.92177 1.30445C0.945314 1.27523 0.970118 1.24709 0.99527 1.21932C1.00729 1.21932 1.01931 1.21932 1.0317 1.21932C1.03555 1.20914 1.0394 1.19896 1.04337 1.18846C1.07709 1.12876 1.12343 1.08652 1.17287 1.04075C1.18336 1.03096 1.19386 1.02116 1.20468 1.01107C1.45255 0.78262 1.73845 0.541211 2.05174 0.416336C2.08864 0.39667 2.12544 0.376807 2.16217 0.356813C2.414 0.224648 2.68729 0.14322 2.96249 0.0802034C2.97756 0.0764241 2.99263 0.0726448 3.00817 0.068751C3.34558 -0.010195 3.69688 8.11585e-05 4.04066 0.000825005Z" fill="white"/>
<path d="M5.95999 5.33446C6.22324 5.33262 6.48649 5.33111 6.74975 5.33028C6.77434 5.33021 6.79894 5.33013 6.82353 5.33005C6.83568 5.33001 6.84783 5.32997 6.86035 5.32994C6.94532 5.32965 7.03028 5.32918 7.11524 5.32864C8.1318 5.32249 9.05542 5.41711 9.94576 5.96279C9.95799 5.97028 9.97022 5.97776 9.98282 5.98547C9.99166 5.99246 10.0005 5.99944 10.0096 6.00664C10.0096 6.01895 10.0096 6.03126 10.0096 6.04394C10.023 6.04882 10.0363 6.0537 10.0501 6.05872C10.1692 6.11153 10.2678 6.20986 10.3563 6.305C10.3719 6.32003 10.3719 6.32003 10.3878 6.33537C10.8656 6.80127 11.1854 7.52084 11.2035 8.19567C11.2043 8.26755 11.2041 8.33937 11.2032 8.41125C11.2025 8.46556 11.2024 8.51986 11.2024 8.57418C11.2013 8.89577 11.1986 9.22947 11.101 9.53793C11.0954 9.55653 11.0898 9.57513 11.084 9.5943C11.0349 9.75282 10.9757 9.90406 10.9037 10.0531C10.8955 10.0706 10.8955 10.0706 10.8871 10.0885C10.7988 10.2759 10.6895 10.4361 10.557 10.5938C10.5489 10.6035 10.5407 10.6133 10.5323 10.6233C10.1479 11.0762 9.67498 11.3898 9.11167 11.5602C9.04267 11.581 9.04267 11.581 8.97817 11.6087C8.86249 11.6538 8.74018 11.6768 8.61943 11.7033C8.60652 11.7062 8.59362 11.709 8.58031 11.712C8.22727 11.7902 7.87385 11.8464 7.51186 11.8456C7.49178 11.8457 7.47169 11.8457 7.451 11.8457C7.40876 11.8457 7.36651 11.8457 7.32427 11.8456C7.26053 11.8455 7.1968 11.8456 7.13306 11.8457C7.09168 11.8457 7.05031 11.8457 7.00893 11.8456C6.99031 11.8457 6.9717 11.8457 6.95251 11.8458C6.84353 11.8454 6.73534 11.841 6.62663 11.8337C6.61323 11.8328 6.59983 11.8319 6.58603 11.831C6.55334 11.8289 6.52066 11.8267 6.48797 11.8245C6.488 11.8393 6.48804 11.8542 6.48807 11.8695C6.48888 12.23 6.48948 12.5906 6.48986 12.9512C6.49005 13.1256 6.4903 13.2999 6.49072 13.4743C6.49109 13.6263 6.49132 13.7782 6.4914 13.9302C6.49145 14.0107 6.49156 14.0912 6.49183 14.1717C6.49207 14.2474 6.49215 14.3231 6.4921 14.3988C6.49211 14.4267 6.49218 14.4545 6.49232 14.4823C6.4925 14.5202 6.49244 14.5582 6.49236 14.5961C6.49239 14.6174 6.49242 14.6386 6.49246 14.6605C6.48807 14.7136 6.47852 14.7444 6.45147 14.7894C6.20706 14.7903 5.96264 14.7909 5.71822 14.7913C5.60474 14.7915 5.49126 14.7918 5.37778 14.7922C5.26834 14.7926 5.1589 14.7928 5.04947 14.7929C5.00763 14.793 4.9658 14.7931 4.92397 14.7933C4.86555 14.7936 4.80713 14.7937 4.74871 14.7936C4.73127 14.7938 4.71383 14.7939 4.69586 14.794C4.67206 14.794 4.67206 14.794 4.64778 14.7939C4.62704 14.7939 4.62704 14.7939 4.60589 14.794C4.57204 14.7894 4.57204 14.7894 4.53555 14.7521C4.53195 14.7014 4.53067 14.6525 4.53096 14.6018C4.53091 14.586 4.53085 14.5702 4.5308 14.5539C4.53066 14.5004 4.53079 14.4469 4.53092 14.3933C4.53087 14.3548 4.53082 14.3163 4.53074 14.2778C4.53059 14.1714 4.53067 14.0651 4.53078 13.9588C4.53086 13.8443 4.53074 13.7298 4.53063 13.6153C4.53048 13.4038 4.5305 13.1924 4.5306 12.9809C4.53069 12.7855 4.53071 12.5902 4.53067 12.3948C4.53066 12.3819 4.53066 12.3689 4.53066 12.3556C4.53065 12.3031 4.53064 12.2506 4.53062 12.198C4.53051 11.7049 4.53061 11.2118 4.53081 10.7187C4.53098 10.2803 4.53097 9.84191 4.53079 9.40351C4.5306 8.91135 4.53052 8.41919 4.53063 7.92704C4.53064 7.8746 4.53066 7.82216 4.53067 7.76972C4.53067 7.75681 4.53067 7.74389 4.53068 7.73059C4.53072 7.53534 4.53067 7.34009 4.53058 7.14484C4.53047 6.92289 4.5305 6.70093 4.5307 6.47898C4.53079 6.36564 4.53083 6.2523 4.53071 6.13896C4.5306 6.03534 4.53066 5.93172 4.53085 5.8281C4.5309 5.79048 4.53087 5.75286 4.53079 5.71524C4.53068 5.66436 4.53079 5.61349 4.53096 5.56262C4.53087 5.54779 4.53079 5.53296 4.5307 5.51768C4.53118 5.44683 4.53262 5.41443 4.57204 5.354C4.6095 5.34656 4.6095 5.34656 4.65702 5.34593C4.67524 5.34556 4.69346 5.3452 4.71223 5.34482C4.73263 5.3447 4.75303 5.34458 4.77404 5.34445C4.80695 5.34395 4.80695 5.34395 4.84053 5.34343C4.90274 5.34255 4.96495 5.34195 5.02716 5.34149C5.06708 5.34118 5.10699 5.34077 5.14691 5.34034C5.31789 5.33849 5.48887 5.33725 5.65985 5.33632C5.7599 5.33577 5.85994 5.33516 5.95999 5.33446Z" fill="black"/>
<path d="M15.1913 5.57935C15.1949 5.85203 15.1846 6.12429 15.1754 6.39677C15.1717 6.50749 15.1682 6.61821 15.1645 6.72893C15.1637 6.75324 15.1629 6.77756 15.1621 6.8026C15.1527 7.09064 15.1446 7.37872 15.1365 7.6668C15.1618 7.66667 15.1618 7.66667 15.1876 7.66654C15.3463 7.6658 15.505 7.66523 15.6637 7.66486C15.7453 7.66467 15.8269 7.6644 15.9085 7.66398C15.9872 7.66358 16.0659 7.66336 16.1446 7.66326C16.1747 7.66319 16.2047 7.66305 16.2348 7.66285C16.2768 7.66258 16.3189 7.66255 16.3609 7.66256C16.3848 7.66248 16.4088 7.6624 16.4335 7.66231C16.4892 7.6668 16.4892 7.6668 16.5258 7.70407C16.5294 7.75495 16.5308 7.80395 16.5305 7.85485C16.5306 7.87822 16.5306 7.87822 16.5307 7.90206C16.5309 7.95372 16.5307 8.00537 16.5306 8.05703C16.5306 8.09282 16.5307 8.12861 16.5307 8.16441C16.5308 8.23949 16.5307 8.31457 16.5305 8.38965C16.5303 8.48605 16.5304 8.58244 16.5307 8.67884C16.5308 8.75277 16.5308 8.8267 16.5307 8.90063C16.5306 8.93618 16.5307 8.97173 16.5307 9.00728C16.5308 9.05691 16.5307 9.10653 16.5305 9.15615C16.5306 9.17095 16.5306 9.18574 16.5307 9.20098C16.5299 9.30267 16.5299 9.30267 16.4892 9.3442C16.4452 9.3477 16.4032 9.3489 16.3592 9.34844C16.3391 9.34844 16.3391 9.34844 16.3187 9.34845C16.2743 9.34843 16.23 9.34814 16.1857 9.34784C16.155 9.34777 16.1244 9.34772 16.0937 9.34768C16.0128 9.34754 15.932 9.34717 15.8511 9.34676C15.7687 9.34638 15.6862 9.34621 15.6038 9.34602C15.4419 9.34562 15.2801 9.34499 15.1182 9.3442C15.1193 9.7695 15.1207 10.1948 15.1225 10.6201C15.1233 10.8176 15.124 11.0151 15.1245 11.2126C15.125 11.3848 15.1256 11.5571 15.1264 11.7293C15.1268 11.8204 15.1272 11.9115 15.1273 12.0026C15.1274 12.0886 15.1278 12.1745 15.1283 12.2605C15.1285 12.2918 15.1286 12.3232 15.1285 12.3545C15.1283 12.6048 15.1399 12.8492 15.2629 13.0727C15.2827 13.1091 15.2827 13.1091 15.301 13.165C15.335 13.1858 15.335 13.1858 15.3741 13.2022C15.3845 13.2084 15.3949 13.2145 15.4055 13.2209C15.6852 13.381 16.0788 13.3257 16.3874 13.2977C16.4029 13.2969 16.4184 13.2962 16.4344 13.2954C16.469 13.3307 16.4555 13.3927 16.4559 13.4396C16.456 13.4527 16.4561 13.4658 16.4562 13.4794C16.4566 13.523 16.4568 13.5666 16.457 13.6102C16.4571 13.6251 16.4571 13.64 16.4572 13.6553C16.4576 13.7341 16.4579 13.8129 16.458 13.8917C16.4582 13.973 16.4589 14.0544 16.4596 14.1358C16.4601 14.1983 16.4602 14.2609 16.4603 14.3234C16.4604 14.3534 16.4606 14.3834 16.4609 14.4134C16.4614 14.4554 16.4614 14.4974 16.4612 14.5395C16.4613 14.5634 16.4615 14.5873 16.4616 14.6119C16.451 14.6859 16.4315 14.716 16.3795 14.7678C16.3325 14.7881 16.2913 14.8027 16.2424 14.8156C16.2289 14.8194 16.2153 14.8232 16.2013 14.8271C15.4261 15.0376 14.5975 15.0777 13.8826 14.666C13.5264 14.439 13.3278 14.1003 13.2205 13.695C13.2152 13.6749 13.2152 13.6749 13.2097 13.6544C13.1439 13.3878 13.1388 13.1233 13.1398 12.8502C13.1398 12.8118 13.1398 12.7734 13.1398 12.7349C13.1398 12.6315 13.14 12.528 13.1402 12.4246C13.1405 12.3162 13.1405 12.2077 13.1405 12.0993C13.1407 11.8944 13.141 11.6894 13.1413 11.4845C13.1417 11.251 13.1419 11.0175 13.1421 10.784C13.1425 10.3041 13.1431 9.82415 13.144 9.3442C13.1331 9.34437 13.1223 9.34453 13.1111 9.3447C12.9985 9.34635 12.8858 9.34748 12.7731 9.3483C12.731 9.34867 12.689 9.34918 12.6469 9.34983C12.5865 9.35073 12.526 9.35115 12.4656 9.35148C12.4468 9.35187 12.428 9.35225 12.4086 9.35265C12.2788 9.35269 12.2788 9.35269 12.2181 9.31068C12.1811 9.24929 12.1833 9.18991 12.1842 9.12007C12.1841 9.10506 12.184 9.09005 12.1839 9.07459C12.1837 9.02503 12.184 8.9755 12.1843 8.92594C12.1843 8.8915 12.1843 8.85706 12.1842 8.82262C12.1842 8.75047 12.1844 8.67832 12.1849 8.60617C12.1854 8.51362 12.1853 8.42108 12.1851 8.32853C12.185 8.25742 12.1851 8.18632 12.1853 8.11522C12.1854 8.08109 12.1854 8.04696 12.1854 8.01283C12.1853 7.96517 12.1856 7.91753 12.186 7.86988C12.1859 7.85573 12.1858 7.84158 12.1858 7.82701C12.1865 7.77307 12.1874 7.73253 12.2156 7.68595C12.2588 7.66056 12.2885 7.66006 12.3384 7.66045C12.3658 7.66045 12.3658 7.66045 12.3938 7.66046C12.4234 7.66089 12.4234 7.66089 12.4535 7.66134C12.4737 7.66141 12.4939 7.66149 12.5148 7.66157C12.5794 7.66189 12.644 7.66259 12.7087 7.6633C12.7524 7.66358 12.7962 7.66384 12.84 7.66407C12.9474 7.66468 13.0548 7.66562 13.1622 7.6668C13.1621 7.65579 13.162 7.64478 13.1619 7.63344C13.1597 7.41594 13.1615 7.20277 13.1862 6.98651C13.1913 6.93897 13.1963 6.89143 13.2014 6.84389C13.204 6.81994 13.2066 6.79599 13.2093 6.77131C13.2172 6.69629 13.2246 6.62123 13.2316 6.54612C13.2328 6.53367 13.234 6.52123 13.2352 6.5084C13.2408 6.449 13.2464 6.38959 13.252 6.33018C13.2581 6.26622 13.2648 6.20235 13.2719 6.13849C13.2743 6.11646 13.2767 6.09443 13.2791 6.07174C13.2818 6.05035 13.2845 6.02897 13.2873 6.00693C13.2896 5.98787 13.2919 5.96881 13.2943 5.94917C13.3122 5.88246 13.3317 5.85021 13.3816 5.80301C13.4869 5.76646 13.5944 5.75566 13.7047 5.74433C13.7392 5.74059 13.7737 5.73684 13.8082 5.7331C13.8261 5.7312 13.8439 5.7293 13.8623 5.72734C14.176 5.6939 14.4878 5.65514 14.7993 5.60501C14.931 5.58431 15.0582 5.57766 15.1913 5.57935Z" fill="black"/>
<path d="M6.77219 7.0874C6.79385 7.08722 6.81552 7.08704 6.83784 7.08685C6.8608 7.08677 6.88376 7.08669 6.90741 7.08661C6.91937 7.08655 6.93133 7.0865 6.94366 7.08644C7.00705 7.08616 7.07044 7.08599 7.13383 7.08591C7.18553 7.08582 7.23723 7.08556 7.28893 7.08513C7.83422 7.08069 7.83422 7.08069 8.09801 7.14694C8.12914 7.15412 8.12914 7.15412 8.1609 7.16144C8.52958 7.24797 8.87494 7.44197 9.09003 7.77081C9.31523 8.16142 9.35471 8.5943 9.254 9.03108C9.16874 9.37078 8.98853 9.59363 8.71929 9.80282C8.70198 9.81644 8.70198 9.81644 8.68432 9.83034C8.56341 9.91653 8.41887 9.96157 8.28074 10.01C8.26018 10.0172 8.23961 10.0245 8.21843 10.0319C7.66076 10.2115 7.06202 10.1419 6.48999 10.1419C6.48999 9.14111 6.48999 8.14035 6.48999 7.10927C6.58759 7.09809 6.67561 7.08806 6.77219 7.0874Z" fill="white"/>
</svg>
