<svg width="117" height="117" viewBox="0 0 117 117" fill="none" xmlns="http://www.w3.org/2000/svg">
<path fill-rule="evenodd" clip-rule="evenodd" d="M112.669 21.9106C114.219 14.3555 106.799 8.077 99.6045 10.8566L11.4196 44.928C3.38571 48.032 3.02774 59.2663 10.8477 62.8753L30.0519 71.739L39.1876 103.714C39.6621 105.375 40.9801 106.661 42.6521 107.094C44.3242 107.527 46.1008 107.043 47.3221 105.822L61.3947 91.7489L81.1078 106.534C86.83 110.825 95.0717 107.699 96.5088 100.693L112.669 21.9106ZM14.9335 54.0227L103.118 19.9514L86.9577 98.7338L63.8624 81.412C61.9217 79.9563 59.2058 80.1493 57.4903 81.8649L51.4629 87.8923L53.2739 77.9322L88.7595 42.4467C90.4868 40.7198 90.6691 37.9814 89.1866 36.0405C87.7041 34.0996 85.0146 33.5552 82.894 34.7669L33.8872 62.7704L14.9335 54.0227ZM39.8626 70.5856L42.8187 80.9323L43.9536 74.6898C44.131 73.7143 44.6017 72.8159 45.3029 72.1148L56.1248 61.2933L39.8626 70.5856Z" fill="white"/>
</svg>
